<svg width="16" height="16" viewBox="0 0 16 16" fill="none" xmlns="http://www.w3.org/2000/svg">
<g clip-path="url(#clip0_442_165)">
<path d="M6.80937 3.30938L10.6469 7.14687C10.8719 7.37187 11 7.68125 11 8C11 8.31875 10.8719 8.62812 10.6469 8.85312L6.80937 12.6906C6.60938 12.8906 6.34062 13 6.05937 13C5.475 13 5 12.525 5 11.9406V10H1C0.446875 10 0 9.55313 0 9V7C0 6.44688 0.446875 6 1 6H5V4.05937C5 3.475 5.475 3 6.05937 3C6.34062 3 6.60938 3.1125 6.80937 3.30938ZM11 13H13C13.5531 13 14 12.5531 14 12V4C14 3.44688 13.5531 3 13 3H11C10.4469 3 10 2.55313 10 2C10 1.44687 10.4469 1 11 1H13C14.6562 1 16 2.34375 16 4V12C16 13.6562 14.6562 15 13 15H11C10.4469 15 10 14.5531 10 14C10 13.4469 10.4469 13 11 13Z" fill="white"/>
</g>
<defs>
<clipPath id="clip0_442_165">
<path d="M0 0H16V16H0V0Z" fill="white"/>
</clipPath>
</defs>
</svg>
