<svg width="14" height="24" viewBox="0 0 14 24" fill="none" xmlns="http://www.w3.org/2000/svg">
<path d="M14 24H0V0H14V24Z" stroke="#E5E7EB"/>
<g clip-path="url(#clip0_442_136)">
<path d="M7 12C8.06087 12 9.07828 11.5786 9.82843 10.8284C10.5786 10.0783 11 9.06087 11 8C11 6.93913 10.5786 5.92172 9.82843 5.17157C9.07828 4.42143 8.06087 4 7 4C5.93913 4 4.92172 4.42143 4.17157 5.17157C3.42143 5.92172 3 6.93913 3 8C3 9.06087 3.42143 10.0783 4.17157 10.8284C4.92172 11.5786 5.93913 12 7 12ZM5.57188 13.5C2.49375 13.5 0 15.9937 0 19.0719C0 19.5844 0.415625 20 0.928125 20H13.0719C13.5844 20 14 19.5844 14 19.0719C14 15.9937 11.5063 13.5 8.42813 13.5H5.57188Z" fill="#D2BAB0"/>
</g>
<defs>
<clipPath id="clip0_442_136">
<path d="M0 4H14V20H0V4Z" fill="white"/>
</clipPath>
</defs>
</svg>
